<mxfile host="65bd71144e">
    <diagram id="l4ouFOZRiKhJBsyQvsC5" name="Page-1">
        <mxGraphModel dx="3227" dy="1827" grid="1" gridSize="10" guides="1" tooltips="1" connect="1" arrows="1" fold="1" page="0" pageScale="1" pageWidth="850" pageHeight="1100" background="none" math="0" shadow="0">
            <root>
                <mxCell id="0"/>
                <mxCell id="1" parent="0"/>
                <mxCell id="49" style="edgeStyle=none;rounded=0;html=1;entryX=1;entryY=0.25;entryDx=0;entryDy=0;strokeWidth=1;fontSize=20;startArrow=diamondThin;startFill=0;endArrow=none;endFill=0;startSize=40;endSize=6;exitX=0.5;exitY=0;exitDx=0;exitDy=0;" parent="1" source="2" target="37" edge="1">
                    <mxGeometry relative="1" as="geometry">
                        <Array as="points">
                            <mxPoint x="330" y="120"/>
                        </Array>
                    </mxGeometry>
                </mxCell>
                <mxCell id="90" style="edgeStyle=none;rounded=0;html=1;entryX=0.999;entryY=0.79;entryDx=0;entryDy=0;strokeWidth=1;fontSize=20;startArrow=none;startFill=0;endArrow=none;endFill=0;startSize=20;endSize=40;entryPerimeter=0;" parent="1" source="2" target="74" edge="1">
                    <mxGeometry relative="1" as="geometry">
                        <Array as="points">
                            <mxPoint x="330" y="882"/>
                        </Array>
                        <mxPoint x="-145" y="910" as="targetPoint"/>
                    </mxGeometry>
                </mxCell>
                <mxCell id="192" style="edgeStyle=none;rounded=0;html=1;entryX=0;entryY=0.5;entryDx=0;entryDy=0;fontSize=20;startArrow=none;startFill=0;endArrow=none;endFill=0;endSize=15;exitX=0.046;exitY=0.996;exitDx=0;exitDy=0;exitPerimeter=0;" parent="1" source="194" target="186" edge="1">
                    <mxGeometry relative="1" as="geometry"/>
                </mxCell>
                <mxCell id="2" value="User" style="swimlane;fontStyle=0;childLayout=stackLayout;horizontal=1;startSize=40;fillColor=none;horizontalStack=0;resizeParent=1;resizeParentMax=0;resizeLast=0;collapsible=1;marginBottom=0;fontSize=20;" parent="1" vertex="1">
                    <mxGeometry x="150" y="260" width="360" height="440" as="geometry"/>
                </mxCell>
                <mxCell id="3" value="name: string" style="text;strokeColor=none;fillColor=none;align=left;verticalAlign=top;spacingLeft=4;spacingRight=4;overflow=hidden;rotatable=0;points=[[0,0.5],[1,0.5]];portConstraint=eastwest;fontSize=20;" parent="2" vertex="1">
                    <mxGeometry y="40" width="360" height="40" as="geometry"/>
                </mxCell>
                <mxCell id="4" value="username: string&#10;" style="text;strokeColor=none;fillColor=none;align=left;verticalAlign=top;spacingLeft=4;spacingRight=4;overflow=hidden;rotatable=0;points=[[0,0.5],[1,0.5]];portConstraint=eastwest;fontSize=20;" parent="2" vertex="1">
                    <mxGeometry y="80" width="360" height="40" as="geometry"/>
                </mxCell>
                <mxCell id="5" value="birthday: date" style="text;strokeColor=none;fillColor=none;align=left;verticalAlign=top;spacingLeft=4;spacingRight=4;overflow=hidden;rotatable=0;points=[[0,0.5],[1,0.5]];portConstraint=eastwest;fontSize=20;" parent="2" vertex="1">
                    <mxGeometry y="120" width="360" height="40" as="geometry"/>
                </mxCell>
                <mxCell id="7" value="country: string" style="text;strokeColor=none;fillColor=none;align=left;verticalAlign=top;spacingLeft=4;spacingRight=4;overflow=hidden;rotatable=0;points=[[0,0.5],[1,0.5]];portConstraint=eastwest;fontSize=20;" parent="2" vertex="1">
                    <mxGeometry y="160" width="360" height="40" as="geometry"/>
                </mxCell>
                <mxCell id="9" value="gender: string" style="text;strokeColor=none;fillColor=none;align=left;verticalAlign=top;spacingLeft=4;spacingRight=4;overflow=hidden;rotatable=0;points=[[0,0.5],[1,0.5]];portConstraint=eastwest;fontSize=20;" parent="2" vertex="1">
                    <mxGeometry y="200" width="360" height="40" as="geometry"/>
                </mxCell>
                <mxCell id="23" value="type: string" style="text;strokeColor=none;fillColor=none;align=left;verticalAlign=top;spacingLeft=4;spacingRight=4;overflow=hidden;rotatable=0;points=[[0,0.5],[1,0.5]];portConstraint=eastwest;fontSize=20;" parent="2" vertex="1">
                    <mxGeometry y="240" width="360" height="40" as="geometry"/>
                </mxCell>
                <mxCell id="24" value="url: URL    " style="text;strokeColor=none;fillColor=none;align=left;verticalAlign=top;spacingLeft=4;spacingRight=4;overflow=hidden;rotatable=0;points=[[0,0.5],[1,0.5]];portConstraint=eastwest;fontSize=20;" parent="2" vertex="1">
                    <mxGeometry y="280" width="360" height="40" as="geometry"/>
                </mxCell>
                <mxCell id="34" value="email: email" style="text;strokeColor=none;fillColor=none;align=left;verticalAlign=top;spacingLeft=4;spacingRight=4;overflow=hidden;rotatable=0;points=[[0,0.5],[1,0.5]];portConstraint=eastwest;fontSize=20;" parent="2" vertex="1">
                    <mxGeometry y="320" width="360" height="40" as="geometry"/>
                </mxCell>
                <mxCell id="35" value="password: string" style="text;strokeColor=none;fillColor=none;align=left;verticalAlign=top;spacingLeft=4;spacingRight=4;overflow=hidden;rotatable=0;points=[[0,0.5],[1,0.5]];portConstraint=eastwest;fontSize=20;" parent="2" vertex="1">
                    <mxGeometry y="360" width="360" height="40" as="geometry"/>
                </mxCell>
                <mxCell id="117" value="reputation: integer" style="text;strokeColor=none;fillColor=none;align=left;verticalAlign=top;spacingLeft=4;spacingRight=4;overflow=hidden;rotatable=0;points=[[0,0.5],[1,0.5]];portConstraint=eastwest;fontSize=20;" parent="2" vertex="1">
                    <mxGeometry y="400" width="360" height="40" as="geometry"/>
                </mxCell>
                <mxCell id="46" style="edgeStyle=none;html=1;fontSize=20;endArrow=none;endFill=0;strokeWidth=1;rounded=0;endSize=6;startArrow=diamondThin;startFill=0;startSize=40;exitX=-0.005;exitY=0.06;exitDx=0;exitDy=0;exitPerimeter=0;" parent="1" source="13" edge="1">
                    <mxGeometry relative="1" as="geometry">
                        <mxPoint x="-662" y="180" as="targetPoint"/>
                        <Array as="points">
                            <mxPoint x="-662" y="382"/>
                        </Array>
                        <mxPoint x="-500" y="440" as="sourcePoint"/>
                    </mxGeometry>
                </mxCell>
                <mxCell id="127" style="edgeStyle=none;html=1;entryX=0.001;entryY=0.255;entryDx=0;entryDy=0;rounded=0;endArrow=none;endFill=0;entryPerimeter=0;" parent="1" source="10" target="120" edge="1">
                    <mxGeometry relative="1" as="geometry">
                        <Array as="points">
                            <mxPoint x="-320" y="-80"/>
                        </Array>
                    </mxGeometry>
                </mxCell>
                <mxCell id="10" value="Post" style="swimlane;fontStyle=0;childLayout=stackLayout;horizontal=1;startSize=40;fillColor=none;horizontalStack=0;resizeParent=1;resizeParentMax=0;resizeLast=0;collapsible=1;marginBottom=0;fontSize=20;" parent="1" vertex="1">
                    <mxGeometry x="-500" y="260" width="360" height="240" as="geometry"/>
                </mxCell>
                <mxCell id="11" value="title: string" style="text;strokeColor=none;fillColor=none;align=left;verticalAlign=top;spacingLeft=4;spacingRight=4;overflow=hidden;rotatable=0;points=[[0,0.5],[1,0.5]];portConstraint=eastwest;fontSize=20;" parent="10" vertex="1">
                    <mxGeometry y="40" width="360" height="40" as="geometry"/>
                </mxCell>
                <mxCell id="12" value="caption: string" style="text;strokeColor=none;fillColor=none;align=left;verticalAlign=top;spacingLeft=4;spacingRight=4;overflow=hidden;rotatable=0;points=[[0,0.5],[1,0.5]];portConstraint=eastwest;fontSize=20;" parent="10" vertex="1">
                    <mxGeometry y="80" width="360" height="40" as="geometry"/>
                </mxCell>
                <mxCell id="13" value="postdate: date" style="text;strokeColor=none;fillColor=none;align=left;verticalAlign=top;spacingLeft=4;spacingRight=4;overflow=hidden;rotatable=0;points=[[0,0.5],[1,0.5]];portConstraint=eastwest;fontSize=20;" parent="10" vertex="1">
                    <mxGeometry y="120" width="360" height="40" as="geometry"/>
                </mxCell>
                <mxCell id="93" value="upvotes: integer" style="text;strokeColor=none;fillColor=none;align=left;verticalAlign=top;spacingLeft=4;spacingRight=4;overflow=hidden;rotatable=0;points=[[0,0.5],[1,0.5]];portConstraint=eastwest;fontSize=20;" parent="10" vertex="1">
                    <mxGeometry y="160" width="360" height="40" as="geometry"/>
                </mxCell>
                <mxCell id="94" value="downvotes: integer" style="text;strokeColor=none;fillColor=none;align=left;verticalAlign=top;spacingLeft=4;spacingRight=4;overflow=hidden;rotatable=0;points=[[0,0.5],[1,0.5]];portConstraint=eastwest;fontSize=20;" parent="10" vertex="1">
                    <mxGeometry y="200" width="360" height="40" as="geometry"/>
                </mxCell>
                <mxCell id="17" style="edgeStyle=none;html=1;fontSize=20;endArrow=none;endFill=0;exitX=0.919;exitY=-0.039;exitDx=0;exitDy=0;exitPerimeter=0;" parent="1" source="20" edge="1">
                    <mxGeometry relative="1" as="geometry">
                        <mxPoint x="-140" y="358" as="targetPoint"/>
                    </mxGeometry>
                </mxCell>
                <mxCell id="20" value="1" style="text;html=1;align=center;verticalAlign=middle;resizable=0;points=[];autosize=1;strokeColor=none;fillColor=none;fontSize=20;" parent="1" vertex="1">
                    <mxGeometry x="120" y="360" width="30" height="40" as="geometry"/>
                </mxCell>
                <mxCell id="21" value="*" style="text;html=1;align=center;verticalAlign=middle;resizable=0;points=[];autosize=1;strokeColor=none;fillColor=none;fontSize=30;" parent="1" vertex="1">
                    <mxGeometry x="-145" y="355" width="40" height="50" as="geometry"/>
                </mxCell>
                <mxCell id="61" style="edgeStyle=none;rounded=0;html=1;strokeWidth=1;fontSize=20;startArrow=block;startFill=0;endArrow=none;endFill=0;startSize=20;endSize=6;" parent="1" source="37" edge="1">
                    <mxGeometry relative="1" as="geometry">
                        <mxPoint x="-650" y="60" as="targetPoint"/>
                    </mxGeometry>
                </mxCell>
                <mxCell id="37" value="Image" style="swimlane;fontStyle=0;childLayout=stackLayout;horizontal=1;startSize=40;fillColor=none;horizontalStack=0;resizeParent=1;resizeParentMax=0;resizeLast=0;collapsible=1;marginBottom=0;fontSize=20;" parent="1" vertex="1">
                    <mxGeometry x="-810" y="100" width="320" height="80" as="geometry"/>
                </mxCell>
                <mxCell id="38" value="path: string" style="text;strokeColor=none;fillColor=none;align=left;verticalAlign=top;spacingLeft=4;spacingRight=4;overflow=hidden;rotatable=0;points=[[0,0.5],[1,0.5]];portConstraint=eastwest;fontSize=20;" parent="37" vertex="1">
                    <mxGeometry y="40" width="320" height="40" as="geometry"/>
                </mxCell>
                <mxCell id="52" value="1" style="text;html=1;align=center;verticalAlign=middle;resizable=0;points=[];autosize=1;strokeColor=none;fillColor=none;fontSize=20;" parent="1" vertex="1">
                    <mxGeometry x="-490" y="120" width="30" height="40" as="geometry"/>
                </mxCell>
                <mxCell id="53" value="0..5" style="text;html=1;align=center;verticalAlign=middle;resizable=0;points=[];autosize=1;strokeColor=none;fillColor=none;fontSize=20;" parent="1" vertex="1">
                    <mxGeometry x="-670" y="180" width="60" height="40" as="geometry"/>
                </mxCell>
                <mxCell id="62" style="edgeStyle=none;rounded=0;html=1;strokeWidth=1;fontSize=20;startArrow=none;startFill=0;endArrow=none;endFill=0;startSize=20;endSize=6;" parent="1" source="54" edge="1">
                    <mxGeometry relative="1" as="geometry">
                        <mxPoint x="-650" y="60" as="targetPoint"/>
                        <Array as="points">
                            <mxPoint x="-427" y="60"/>
                        </Array>
                    </mxGeometry>
                </mxCell>
                <mxCell id="54" value="Jpg" style="html=1;fontSize=20;" parent="1" vertex="1">
                    <mxGeometry x="-482.5" y="-10" width="110" height="50" as="geometry"/>
                </mxCell>
                <mxCell id="63" style="edgeStyle=none;rounded=0;html=1;strokeWidth=1;fontSize=20;startArrow=none;startFill=0;endArrow=none;endFill=0;startSize=20;endSize=6;" parent="1" source="55" edge="1">
                    <mxGeometry relative="1" as="geometry">
                        <mxPoint x="-572" y="60" as="targetPoint"/>
                    </mxGeometry>
                </mxCell>
                <mxCell id="55" value="Png" style="html=1;fontSize=20;" parent="1" vertex="1">
                    <mxGeometry x="-627.5" y="-10" width="110" height="50" as="geometry"/>
                </mxCell>
                <mxCell id="64" style="edgeStyle=none;rounded=0;html=1;strokeWidth=1;fontSize=20;startArrow=none;startFill=0;endArrow=none;endFill=0;startSize=20;endSize=6;" parent="1" source="57" edge="1">
                    <mxGeometry relative="1" as="geometry">
                        <mxPoint x="-650" y="60" as="targetPoint"/>
                        <Array as="points">
                            <mxPoint x="-722" y="60"/>
                        </Array>
                    </mxGeometry>
                </mxCell>
                <mxCell id="57" value="Svg" style="html=1;fontSize=20;" parent="1" vertex="1">
                    <mxGeometry x="-777.5" y="-10" width="110" height="50" as="geometry"/>
                </mxCell>
                <mxCell id="65" style="edgeStyle=none;rounded=0;html=1;strokeWidth=1;fontSize=20;startArrow=none;startFill=0;endArrow=none;endFill=0;startSize=20;endSize=6;" parent="1" source="58" edge="1">
                    <mxGeometry relative="1" as="geometry">
                        <mxPoint x="-720" y="60" as="targetPoint"/>
                        <Array as="points">
                            <mxPoint x="-870" y="60"/>
                        </Array>
                    </mxGeometry>
                </mxCell>
                <mxCell id="58" value="Gif" style="html=1;fontSize=20;" parent="1" vertex="1">
                    <mxGeometry x="-927.5" y="-10" width="110" height="50" as="geometry"/>
                </mxCell>
                <mxCell id="66" value="&lt;font style=&quot;font-size: 16px;&quot;&gt;{disjoint, complete}&lt;/font&gt;" style="text;html=1;align=center;verticalAlign=middle;resizable=0;points=[];autosize=1;strokeColor=none;fillColor=none;fontSize=20;" parent="1" vertex="1">
                    <mxGeometry x="-620" y="50" width="160" height="40" as="geometry"/>
                </mxCell>
                <mxCell id="80" style="edgeStyle=none;rounded=0;html=1;strokeWidth=1;fontSize=16;startArrow=none;startFill=0;endArrow=diamondThin;endFill=1;startSize=20;endSize=40;entryX=0.495;entryY=1.103;entryDx=0;entryDy=0;entryPerimeter=0;" parent="1" source="71" edge="1" target="94">
                    <mxGeometry relative="1" as="geometry">
                        <mxPoint x="-325" y="660" as="targetPoint"/>
                        <Array as="points"/>
                    </mxGeometry>
                </mxCell>
                <mxCell id="115" style="edgeStyle=none;rounded=0;html=1;strokeWidth=1;fontSize=20;startArrow=diamondThin;startFill=0;endArrow=none;endFill=0;startSize=40;endSize=40;exitX=0.001;exitY=0.796;exitDx=0;exitDy=0;exitPerimeter=0;" parent="1" source="73" edge="1">
                    <mxGeometry relative="1" as="geometry">
                        <mxPoint x="-680" y="670" as="targetPoint"/>
                        <Array as="points">
                            <mxPoint x="-680" y="840"/>
                        </Array>
                        <mxPoint x="-503.1999999999998" y="930.4000000000001" as="sourcePoint"/>
                    </mxGeometry>
                </mxCell>
                <mxCell id="71" value="Comment" style="swimlane;fontStyle=0;childLayout=stackLayout;horizontal=1;startSize=40;fillColor=none;horizontalStack=0;resizeParent=1;resizeParentMax=0;resizeLast=0;collapsible=1;marginBottom=0;fontSize=20;" parent="1" vertex="1">
                    <mxGeometry x="-505" y="770" width="360" height="200" as="geometry"/>
                </mxCell>
                <mxCell id="73" value="caption: string" style="text;strokeColor=none;fillColor=none;align=left;verticalAlign=top;spacingLeft=4;spacingRight=4;overflow=hidden;rotatable=0;points=[[0,0.5],[1,0.5]];portConstraint=eastwest;fontSize=20;" parent="71" vertex="1">
                    <mxGeometry y="40" width="360" height="40" as="geometry"/>
                </mxCell>
                <mxCell id="74" value="commentdate: date" style="text;strokeColor=none;fillColor=none;align=left;verticalAlign=top;spacingLeft=4;spacingRight=4;overflow=hidden;rotatable=0;points=[[0,0.5],[1,0.5]];portConstraint=eastwest;fontSize=20;" parent="71" vertex="1">
                    <mxGeometry y="80" width="360" height="40" as="geometry"/>
                </mxCell>
                <mxCell id="95" value="upvotes: integer" style="text;strokeColor=none;fillColor=none;align=left;verticalAlign=top;spacingLeft=4;spacingRight=4;overflow=hidden;rotatable=0;points=[[0,0.5],[1,0.5]];portConstraint=eastwest;fontSize=20;" parent="71" vertex="1">
                    <mxGeometry y="120" width="360" height="40" as="geometry"/>
                </mxCell>
                <mxCell id="96" value="downvotes: integer" style="text;strokeColor=none;fillColor=none;align=left;verticalAlign=top;spacingLeft=4;spacingRight=4;overflow=hidden;rotatable=0;points=[[0,0.5],[1,0.5]];portConstraint=eastwest;fontSize=20;" parent="71" vertex="1">
                    <mxGeometry y="160" width="360" height="40" as="geometry"/>
                </mxCell>
                <mxCell id="82" value="*" style="text;html=1;align=center;verticalAlign=middle;resizable=0;points=[];autosize=1;strokeColor=none;fillColor=none;fontSize=25;" parent="1" vertex="1">
                    <mxGeometry x="-325" y="735" width="30" height="40" as="geometry"/>
                </mxCell>
                <mxCell id="83" value="1" style="text;html=1;align=center;verticalAlign=middle;resizable=0;points=[];autosize=1;strokeColor=none;fillColor=none;fontSize=20;" parent="1" vertex="1">
                    <mxGeometry x="-310" y="630" width="30" height="40" as="geometry"/>
                </mxCell>
                <mxCell id="85" style="edgeStyle=none;rounded=0;html=1;entryX=1;entryY=0.5;entryDx=0;entryDy=0;strokeWidth=1;fontSize=20;startArrow=none;startFill=0;endArrow=none;endFill=0;startSize=20;endSize=40;dashed=1;" parent="1" source="84" target="35" edge="1">
                    <mxGeometry relative="1" as="geometry">
                        <Array as="points">
                            <mxPoint x="940" y="640"/>
                        </Array>
                    </mxGeometry>
                </mxCell>
                <mxCell id="84" value="&lt;font style=&quot;font-size: 20px;&quot;&gt;&lt;i&gt;Constraints&lt;/i&gt;&lt;br&gt;{ name: NOT NULL}&lt;br&gt;{username: PRIMARY KEY}&lt;br&gt;{email: UNIQUE}&lt;br&gt;{password: NOT NULL}&lt;br&gt;{reputation: DEFAULT 0}&lt;br&gt;&lt;/font&gt;" style="shape=note;whiteSpace=wrap;html=1;backgroundOutline=1;darkOpacity=0.05;fontSize=16;align=center;" parent="1" vertex="1">
                    <mxGeometry x="810" y="670" width="260" height="150" as="geometry"/>
                </mxCell>
                <mxCell id="87" style="edgeStyle=none;rounded=0;html=1;dashed=1;strokeWidth=1;fontSize=20;startArrow=none;startFill=0;endArrow=none;endFill=0;startSize=20;endSize=40;exitX=0.5;exitY=0;exitDx=0;exitDy=0;exitPerimeter=0;entryX=0.841;entryY=1.077;entryDx=0;entryDy=0;entryPerimeter=0;" parent="1" source="86" target="94" edge="1">
                    <mxGeometry relative="1" as="geometry">
                        <mxPoint x="-580" y="580" as="sourcePoint"/>
                        <mxPoint x="-510" y="630" as="targetPoint"/>
                        <Array as="points">
                            <mxPoint x="5" y="560"/>
                            <mxPoint x="-197" y="560"/>
                        </Array>
                    </mxGeometry>
                </mxCell>
                <mxCell id="86" value="&lt;font style=&quot;font-size: 20px;&quot;&gt;&lt;i&gt;Constraints&lt;/i&gt;&lt;br&gt;{ title: NOT NULL }&lt;br&gt;{ caption: NOT NULL }&lt;br&gt;{ upvotes: CHECK &amp;gt;=&amp;nbsp;0 }&lt;br&gt;{ downvotes: CHECK &amp;gt;=&amp;nbsp;0&lt;br&gt;post_id: PRIMARY KEY}&lt;br&gt;&lt;/font&gt;" style="shape=note;whiteSpace=wrap;html=1;backgroundOutline=1;darkOpacity=0.05;fontSize=16;align=center;" parent="1" vertex="1">
                    <mxGeometry x="-115.5" y="620" width="241" height="150" as="geometry"/>
                </mxCell>
                <mxCell id="89" style="edgeStyle=none;rounded=0;html=1;dashed=1;strokeWidth=1;fontSize=20;startArrow=none;startFill=0;endArrow=none;endFill=0;startSize=20;endSize=40;" parent="1" source="88" edge="1">
                    <mxGeometry relative="1" as="geometry">
                        <mxPoint x="-325" y="980" as="targetPoint"/>
                    </mxGeometry>
                </mxCell>
                <mxCell id="88" value="&lt;font style=&quot;font-size: 20px;&quot;&gt;&lt;i&gt;Constraints&lt;/i&gt;&lt;br&gt;{ caption: NOT NULL }&lt;br&gt;{ upvotes: CHECK &amp;gt;= 0 }&lt;br&gt;{ downvotes: CHECK &amp;gt;= 0 &lt;br&gt;comment_id: PRIMARY KEY}&lt;br&gt;&lt;/font&gt;" style="shape=note;whiteSpace=wrap;html=1;backgroundOutline=1;darkOpacity=0.05;fontSize=16;align=center;" parent="1" vertex="1">
                    <mxGeometry x="-465" y="1040" width="280" height="160" as="geometry"/>
                </mxCell>
                <mxCell id="91" value="1" style="text;html=1;align=center;verticalAlign=middle;resizable=0;points=[];autosize=1;strokeColor=none;fillColor=none;fontSize=20;" parent="1" vertex="1">
                    <mxGeometry x="300" y="740" width="30" height="40" as="geometry"/>
                </mxCell>
                <mxCell id="92" value="*" style="text;html=1;align=center;verticalAlign=middle;resizable=0;points=[];autosize=1;strokeColor=none;fillColor=none;fontSize=30;strokeWidth=1;" parent="1" vertex="1">
                    <mxGeometry x="-150" y="850" width="40" height="50" as="geometry"/>
                </mxCell>
                <mxCell id="97" style="edgeStyle=none;rounded=0;html=1;strokeWidth=1;fontSize=20;startArrow=block;startFill=0;endArrow=none;endFill=0;startSize=20;endSize=6;" parent="1" source="98" edge="1">
                    <mxGeometry relative="1" as="geometry">
                        <mxPoint x="-972.5" y="590" as="targetPoint"/>
                    </mxGeometry>
                </mxCell>
                <mxCell id="98" value="Video" style="swimlane;fontStyle=0;childLayout=stackLayout;horizontal=1;startSize=40;fillColor=none;horizontalStack=0;resizeParent=1;resizeParentMax=0;resizeLast=0;collapsible=1;marginBottom=0;fontSize=20;" parent="1" vertex="1">
                    <mxGeometry x="-1132.5" y="630" width="320" height="80" as="geometry"/>
                </mxCell>
                <mxCell id="99" value="path: string" style="text;strokeColor=none;fillColor=none;align=left;verticalAlign=top;spacingLeft=4;spacingRight=4;overflow=hidden;rotatable=0;points=[[0,0.5],[1,0.5]];portConstraint=eastwest;fontSize=20;" parent="98" vertex="1">
                    <mxGeometry y="40" width="320" height="40" as="geometry"/>
                </mxCell>
                <mxCell id="105" style="edgeStyle=none;rounded=0;html=1;strokeWidth=1;fontSize=20;startArrow=none;startFill=0;endArrow=none;endFill=0;startSize=20;endSize=6;" parent="1" source="106" edge="1">
                    <mxGeometry relative="1" as="geometry">
                        <mxPoint x="-972.5" y="590" as="targetPoint"/>
                        <Array as="points">
                            <mxPoint x="-847" y="590"/>
                        </Array>
                    </mxGeometry>
                </mxCell>
                <mxCell id="106" value="Mov" style="html=1;fontSize=20;" parent="1" vertex="1">
                    <mxGeometry x="-902.5" y="525" width="110" height="50" as="geometry"/>
                </mxCell>
                <mxCell id="107" style="edgeStyle=none;rounded=0;html=1;strokeWidth=1;fontSize=20;startArrow=none;startFill=0;endArrow=none;endFill=0;startSize=20;endSize=6;" parent="1" source="108" edge="1">
                    <mxGeometry relative="1" as="geometry">
                        <mxPoint x="-970" y="590" as="targetPoint"/>
                        <Array as="points">
                            <mxPoint x="-1105" y="590"/>
                        </Array>
                    </mxGeometry>
                </mxCell>
                <mxCell id="108" value="Mp4" style="html=1;fontSize=20;" parent="1" vertex="1">
                    <mxGeometry x="-1160" y="525" width="110" height="50" as="geometry"/>
                </mxCell>
                <mxCell id="109" value="&lt;font style=&quot;font-size: 16px;&quot;&gt;{disjoint, complete}&lt;/font&gt;" style="text;html=1;align=center;verticalAlign=middle;resizable=0;points=[];autosize=1;strokeColor=none;fillColor=none;fontSize=20;" parent="1" vertex="1">
                    <mxGeometry x="-970" y="590" width="160" height="40" as="geometry"/>
                </mxCell>
                <mxCell id="111" style="edgeStyle=none;rounded=0;html=1;entryX=1.005;entryY=0.146;entryDx=0;entryDy=0;entryPerimeter=0;strokeWidth=1;fontSize=20;startArrow=diamondThin;startFill=0;endArrow=none;endFill=0;startSize=40;endSize=40;exitX=0;exitY=0.5;exitDx=0;exitDy=0;" parent="1" target="99" edge="1">
                    <mxGeometry relative="1" as="geometry">
                        <Array as="points">
                            <mxPoint x="-680" y="440"/>
                            <mxPoint x="-680" y="676"/>
                        </Array>
                        <mxPoint x="-500" y="440" as="sourcePoint"/>
                    </mxGeometry>
                </mxCell>
                <mxCell id="113" value="*" style="text;html=1;align=center;verticalAlign=middle;resizable=0;points=[];autosize=1;strokeColor=none;fillColor=none;fontSize=20;" parent="1" vertex="1">
                    <mxGeometry x="-527" y="444" width="26" height="36" as="geometry"/>
                </mxCell>
                <mxCell id="114" value="0..1" style="text;html=1;align=center;verticalAlign=middle;resizable=0;points=[];autosize=1;strokeColor=none;fillColor=none;fontSize=20;" parent="1" vertex="1">
                    <mxGeometry x="-817.5" y="640" width="60" height="40" as="geometry"/>
                </mxCell>
                <mxCell id="116" value="*" style="text;html=1;align=center;verticalAlign=middle;resizable=0;points=[];autosize=1;strokeColor=none;fillColor=none;fontSize=20;" parent="1" vertex="1">
                    <mxGeometry x="-553" y="804" width="26" height="36" as="geometry"/>
                </mxCell>
                <mxCell id="118" value="Topic" style="swimlane;fontStyle=0;childLayout=stackLayout;horizontal=1;startSize=40;fillColor=none;horizontalStack=0;resizeParent=1;resizeParentMax=0;resizeLast=0;collapsible=1;marginBottom=0;fontSize=20;" parent="1" vertex="1">
                    <mxGeometry x="-185" y="-170" width="360" height="160" as="geometry"/>
                </mxCell>
                <mxCell id="119" value="title: string" style="text;strokeColor=none;fillColor=none;align=left;verticalAlign=top;spacingLeft=4;spacingRight=4;overflow=hidden;rotatable=0;points=[[0,0.5],[1,0.5]];portConstraint=eastwest;fontSize=20;" parent="118" vertex="1">
                    <mxGeometry y="40" width="360" height="40" as="geometry"/>
                </mxCell>
                <mxCell id="120" value="caption: string" style="text;strokeColor=none;fillColor=none;align=left;verticalAlign=top;spacingLeft=4;spacingRight=4;overflow=hidden;rotatable=0;points=[[0,0.5],[1,0.5]];portConstraint=eastwest;fontSize=20;" parent="118" vertex="1">
                    <mxGeometry y="80" width="360" height="40" as="geometry"/>
                </mxCell>
                <mxCell id="130" value="+ followers: integer" style="text;strokeColor=none;fillColor=none;align=left;verticalAlign=top;spacingLeft=4;spacingRight=4;overflow=hidden;rotatable=0;points=[[0,0.5],[1,0.5]];portConstraint=eastwest;fontSize=20;" parent="118" vertex="1">
                    <mxGeometry y="120" width="360" height="40" as="geometry"/>
                </mxCell>
                <mxCell id="128" value="&lt;span style=&quot;font-size: 20px;&quot;&gt;*&lt;/span&gt;" style="text;html=1;align=center;verticalAlign=middle;resizable=0;points=[];autosize=1;strokeColor=none;fillColor=none;" parent="1" vertex="1">
                    <mxGeometry x="-313" y="222" width="26" height="36" as="geometry"/>
                </mxCell>
                <mxCell id="129" value="*" style="text;html=1;align=center;verticalAlign=middle;resizable=0;points=[];autosize=1;strokeColor=none;fillColor=none;fontSize=20;" parent="1" vertex="1">
                    <mxGeometry x="-215" y="-120" width="30" height="40" as="geometry"/>
                </mxCell>
                <mxCell id="131" value="0..1" style="text;html=1;align=center;verticalAlign=middle;resizable=0;points=[];autosize=1;strokeColor=none;fillColor=none;fontSize=20;" parent="1" vertex="1">
                    <mxGeometry x="346" y="220" width="51" height="36" as="geometry"/>
                </mxCell>
                <mxCell id="132" value="*" style="text;html=1;align=center;verticalAlign=middle;resizable=0;points=[];autosize=1;strokeColor=none;fillColor=none;fontSize=20;" parent="1" vertex="1">
                    <mxGeometry x="-562" y="355" width="26" height="36" as="geometry"/>
                </mxCell>
                <mxCell id="133" style="edgeStyle=none;rounded=0;html=1;entryX=0;entryY=0.5;entryDx=0;entryDy=0;fontSize=20;startArrow=none;startFill=0;endArrow=diamondThin;endFill=0;endSize=40;" parent="1" source="38" target="95" edge="1">
                    <mxGeometry relative="1" as="geometry">
                        <Array as="points">
                            <mxPoint x="-1280" y="160"/>
                            <mxPoint x="-1280" y="910"/>
                        </Array>
                    </mxGeometry>
                </mxCell>
                <mxCell id="134" value="0..5" style="text;html=1;align=center;verticalAlign=middle;resizable=0;points=[];autosize=1;strokeColor=none;fillColor=none;fontSize=20;" parent="1" vertex="1">
                    <mxGeometry x="-872.5" y="120" width="60" height="40" as="geometry"/>
                </mxCell>
                <mxCell id="135" value="*" style="text;html=1;align=center;verticalAlign=middle;resizable=0;points=[];autosize=1;strokeColor=none;fillColor=none;fontSize=20;" parent="1" vertex="1">
                    <mxGeometry x="-536" y="918" width="30" height="40" as="geometry"/>
                </mxCell>
                <mxCell id="137" style="edgeStyle=none;rounded=0;html=1;entryX=1;entryY=0.5;entryDx=0;entryDy=0;fontSize=20;startArrow=none;startFill=0;endArrow=none;endFill=0;endSize=40;exitX=0;exitY=0.5;exitDx=0;exitDy=0;" parent="1" source="9" target="94" edge="1">
                    <mxGeometry relative="1" as="geometry">
                        <mxPoint x="140" y="480" as="sourcePoint"/>
                        <mxPoint x="-140" y="440" as="targetPoint"/>
                    </mxGeometry>
                </mxCell>
                <mxCell id="139" value="*" style="text;html=1;align=center;verticalAlign=middle;resizable=0;points=[];autosize=1;strokeColor=none;fillColor=none;fontSize=20;" parent="1" vertex="1">
                    <mxGeometry x="450" y="740" width="30" height="40" as="geometry"/>
                </mxCell>
                <mxCell id="140" value="*" style="text;html=1;align=center;verticalAlign=middle;resizable=0;points=[];autosize=1;strokeColor=none;fillColor=none;fontSize=20;" parent="1" vertex="1">
                    <mxGeometry x="510" y="650" width="30" height="40" as="geometry"/>
                </mxCell>
                <mxCell id="141" value="Follow" style="text;html=1;align=center;verticalAlign=middle;resizable=0;points=[];autosize=1;strokeColor=none;fillColor=none;fontSize=20;" parent="1" vertex="1">
                    <mxGeometry x="520" y="840" width="80" height="40" as="geometry"/>
                </mxCell>
                <mxCell id="143" style="edgeStyle=none;rounded=0;html=1;fontSize=20;startArrow=none;startFill=0;endArrow=block;endFill=0;endSize=15;entryX=1;entryY=0.5;entryDx=0;entryDy=0;" parent="1" source="4" target="130" edge="1">
                    <mxGeometry relative="1" as="geometry">
                        <mxPoint x="180" y="-80" as="targetPoint"/>
                        <Array as="points">
                            <mxPoint x="640" y="360"/>
                            <mxPoint x="640" y="-30"/>
                        </Array>
                    </mxGeometry>
                </mxCell>
                <mxCell id="146" value="Follow" style="text;html=1;align=center;verticalAlign=middle;resizable=0;points=[];autosize=1;strokeColor=none;fillColor=none;fontSize=20;" parent="1" vertex="1">
                    <mxGeometry x="266" y="-70" width="80" height="40" as="geometry"/>
                </mxCell>
                <mxCell id="164" style="edgeStyle=none;rounded=0;html=1;entryX=1;entryY=0.5;entryDx=0;entryDy=0;fontSize=20;startArrow=none;startFill=0;endArrow=block;endFill=0;endSize=15;exitX=0.141;exitY=0.99;exitDx=0;exitDy=0;exitPerimeter=0;" parent="1" source="159" target="34" edge="1">
                    <mxGeometry relative="1" as="geometry">
                        <Array as="points">
                            <mxPoint x="800" y="600"/>
                        </Array>
                    </mxGeometry>
                </mxCell>
                <mxCell id="199" style="edgeStyle=none;rounded=0;html=1;entryX=1;entryY=0.5;entryDx=0;entryDy=0;fontSize=20;startArrow=none;startFill=0;endArrow=none;endFill=0;endSize=15;" parent="1" source="148" target="175" edge="1">
                    <mxGeometry relative="1" as="geometry">
                        <Array as="points">
                            <mxPoint x="920" y="-340"/>
                        </Array>
                    </mxGeometry>
                </mxCell>
                <mxCell id="148" value="Admin" style="swimlane;fontStyle=0;childLayout=stackLayout;horizontal=1;startSize=40;fillColor=none;horizontalStack=0;resizeParent=1;resizeParentMax=0;resizeLast=0;collapsible=1;marginBottom=0;fontSize=20;" parent="1" vertex="1">
                    <mxGeometry x="750" y="-300" width="360" height="440" as="geometry"/>
                </mxCell>
                <mxCell id="149" value="name: string" style="text;strokeColor=none;fillColor=none;align=left;verticalAlign=top;spacingLeft=4;spacingRight=4;overflow=hidden;rotatable=0;points=[[0,0.5],[1,0.5]];portConstraint=eastwest;fontSize=20;" parent="148" vertex="1">
                    <mxGeometry y="40" width="360" height="40" as="geometry"/>
                </mxCell>
                <mxCell id="150" value="username: string&#10;" style="text;strokeColor=none;fillColor=none;align=left;verticalAlign=top;spacingLeft=4;spacingRight=4;overflow=hidden;rotatable=0;points=[[0,0.5],[1,0.5]];portConstraint=eastwest;fontSize=20;" parent="148" vertex="1">
                    <mxGeometry y="80" width="360" height="40" as="geometry"/>
                </mxCell>
                <mxCell id="151" value="birthday: date" style="text;strokeColor=none;fillColor=none;align=left;verticalAlign=top;spacingLeft=4;spacingRight=4;overflow=hidden;rotatable=0;points=[[0,0.5],[1,0.5]];portConstraint=eastwest;fontSize=20;" parent="148" vertex="1">
                    <mxGeometry y="120" width="360" height="40" as="geometry"/>
                </mxCell>
                <mxCell id="152" value="country: string" style="text;strokeColor=none;fillColor=none;align=left;verticalAlign=top;spacingLeft=4;spacingRight=4;overflow=hidden;rotatable=0;points=[[0,0.5],[1,0.5]];portConstraint=eastwest;fontSize=20;" parent="148" vertex="1">
                    <mxGeometry y="160" width="360" height="40" as="geometry"/>
                </mxCell>
                <mxCell id="154" value="gender: string" style="text;strokeColor=none;fillColor=none;align=left;verticalAlign=top;spacingLeft=4;spacingRight=4;overflow=hidden;rotatable=0;points=[[0,0.5],[1,0.5]];portConstraint=eastwest;fontSize=20;" parent="148" vertex="1">
                    <mxGeometry y="200" width="360" height="40" as="geometry"/>
                </mxCell>
                <mxCell id="155" value="type: string" style="text;strokeColor=none;fillColor=none;align=left;verticalAlign=top;spacingLeft=4;spacingRight=4;overflow=hidden;rotatable=0;points=[[0,0.5],[1,0.5]];portConstraint=eastwest;fontSize=20;" parent="148" vertex="1">
                    <mxGeometry y="240" width="360" height="40" as="geometry"/>
                </mxCell>
                <mxCell id="156" value="url: URL    " style="text;strokeColor=none;fillColor=none;align=left;verticalAlign=top;spacingLeft=4;spacingRight=4;overflow=hidden;rotatable=0;points=[[0,0.5],[1,0.5]];portConstraint=eastwest;fontSize=20;" parent="148" vertex="1">
                    <mxGeometry y="280" width="360" height="40" as="geometry"/>
                </mxCell>
                <mxCell id="157" value="email: email" style="text;strokeColor=none;fillColor=none;align=left;verticalAlign=top;spacingLeft=4;spacingRight=4;overflow=hidden;rotatable=0;points=[[0,0.5],[1,0.5]];portConstraint=eastwest;fontSize=20;" parent="148" vertex="1">
                    <mxGeometry y="320" width="360" height="40" as="geometry"/>
                </mxCell>
                <mxCell id="158" value="password: string" style="text;strokeColor=none;fillColor=none;align=left;verticalAlign=top;spacingLeft=4;spacingRight=4;overflow=hidden;rotatable=0;points=[[0,0.5],[1,0.5]];portConstraint=eastwest;fontSize=20;" parent="148" vertex="1">
                    <mxGeometry y="360" width="360" height="40" as="geometry"/>
                </mxCell>
                <mxCell id="159" value="reputation: integer" style="text;strokeColor=none;fillColor=none;align=left;verticalAlign=top;spacingLeft=4;spacingRight=4;overflow=hidden;rotatable=0;points=[[0,0.5],[1,0.5]];portConstraint=eastwest;fontSize=20;" parent="148" vertex="1">
                    <mxGeometry y="400" width="360" height="40" as="geometry"/>
                </mxCell>
                <mxCell id="179" style="edgeStyle=none;rounded=0;html=1;entryX=0.803;entryY=-0.001;entryDx=0;entryDy=0;entryPerimeter=0;fontSize=20;startArrow=none;startFill=0;endArrow=none;endFill=0;endSize=15;" parent="1" source="175" target="2" edge="1">
                    <mxGeometry relative="1" as="geometry"/>
                </mxCell>
                <mxCell id="175" value="Topic Proposal" style="swimlane;fontStyle=0;childLayout=stackLayout;horizontal=1;startSize=40;fillColor=none;horizontalStack=0;resizeParent=1;resizeParentMax=0;resizeLast=0;collapsible=1;marginBottom=0;fontSize=20;" parent="1" vertex="1">
                    <mxGeometry x="260" y="-400" width="360" height="120" as="geometry"/>
                </mxCell>
                <mxCell id="176" value="title: string" style="text;strokeColor=none;fillColor=none;align=left;verticalAlign=top;spacingLeft=4;spacingRight=4;overflow=hidden;rotatable=0;points=[[0,0.5],[1,0.5]];portConstraint=eastwest;fontSize=20;" parent="175" vertex="1">
                    <mxGeometry y="40" width="360" height="40" as="geometry"/>
                </mxCell>
                <mxCell id="177" value="caption: string" style="text;strokeColor=none;fillColor=none;align=left;verticalAlign=top;spacingLeft=4;spacingRight=4;overflow=hidden;rotatable=0;points=[[0,0.5],[1,0.5]];portConstraint=eastwest;fontSize=20;" parent="175" vertex="1">
                    <mxGeometry y="80" width="360" height="40" as="geometry"/>
                </mxCell>
                <mxCell id="180" value="*" style="text;html=1;align=center;verticalAlign=middle;resizable=0;points=[];autosize=1;strokeColor=none;fillColor=none;fontSize=20;" parent="1" vertex="1">
                    <mxGeometry x="445" y="-280" width="30" height="40" as="geometry"/>
                </mxCell>
                <mxCell id="181" value="1" style="text;html=1;align=center;verticalAlign=middle;resizable=0;points=[];autosize=1;strokeColor=none;fillColor=none;fontSize=20;" parent="1" vertex="1">
                    <mxGeometry x="440" y="222" width="30" height="40" as="geometry"/>
                </mxCell>
                <mxCell id="184" value="Notifications" style="swimlane;fontStyle=0;childLayout=stackLayout;horizontal=1;startSize=40;fillColor=none;horizontalStack=0;resizeParent=1;resizeParentMax=0;resizeLast=0;collapsible=1;marginBottom=0;fontSize=20;" parent="1" vertex="1">
                    <mxGeometry x="900" y="400" width="360" height="160" as="geometry"/>
                </mxCell>
                <mxCell id="185" value="title: string" style="text;strokeColor=none;fillColor=none;align=left;verticalAlign=top;spacingLeft=4;spacingRight=4;overflow=hidden;rotatable=0;points=[[0,0.5],[1,0.5]];portConstraint=eastwest;fontSize=20;" parent="184" vertex="1">
                    <mxGeometry y="40" width="360" height="40" as="geometry"/>
                </mxCell>
                <mxCell id="186" value="caption: string" style="text;strokeColor=none;fillColor=none;align=left;verticalAlign=top;spacingLeft=4;spacingRight=4;overflow=hidden;rotatable=0;points=[[0,0.5],[1,0.5]];portConstraint=eastwest;fontSize=20;" parent="184" vertex="1">
                    <mxGeometry y="80" width="360" height="40" as="geometry"/>
                </mxCell>
                <mxCell id="190" value="type: string" style="text;strokeColor=none;fillColor=none;align=left;verticalAlign=top;spacingLeft=4;spacingRight=4;overflow=hidden;rotatable=0;points=[[0,0.5],[1,0.5]];portConstraint=eastwest;fontSize=20;" parent="184" vertex="1">
                    <mxGeometry y="120" width="360" height="40" as="geometry"/>
                </mxCell>
                <mxCell id="188" value="is a" style="text;html=1;align=center;verticalAlign=middle;resizable=0;points=[];autosize=1;strokeColor=none;fillColor=none;fontSize=20;" parent="1" vertex="1">
                    <mxGeometry x="565" y="560" width="50" height="40" as="geometry"/>
                </mxCell>
                <mxCell id="193" value="receives" style="text;html=1;align=center;verticalAlign=middle;resizable=0;points=[];autosize=1;strokeColor=none;fillColor=none;fontSize=20;" parent="1" vertex="1">
                    <mxGeometry x="650" y="460" width="100" height="40" as="geometry"/>
                </mxCell>
                <mxCell id="194" value="1" style="text;html=1;align=center;verticalAlign=middle;resizable=0;points=[];autosize=1;strokeColor=none;fillColor=none;fontSize=20;" parent="1" vertex="1">
                    <mxGeometry x="510" y="460" width="30" height="40" as="geometry"/>
                </mxCell>
                <mxCell id="195" value="*" style="text;html=1;align=center;verticalAlign=middle;resizable=0;points=[];autosize=1;strokeColor=none;fillColor=none;fontSize=20;" parent="1" vertex="1">
                    <mxGeometry x="870" y="460" width="30" height="40" as="geometry"/>
                </mxCell>
                <mxCell id="198" value="Proposes" style="text;html=1;align=center;verticalAlign=middle;resizable=0;points=[];autosize=1;strokeColor=none;fillColor=none;fontSize=20;" parent="1" vertex="1">
                    <mxGeometry x="440" y="80" width="110" height="40" as="geometry"/>
                </mxCell>
                <mxCell id="200" value="Reviews" style="text;html=1;align=center;verticalAlign=middle;resizable=0;points=[];autosize=1;strokeColor=none;fillColor=none;fontSize=20;" parent="1" vertex="1">
                    <mxGeometry x="720" y="-380" width="100" height="40" as="geometry"/>
                </mxCell>
                <mxCell id="201" value="1" style="text;html=1;align=center;verticalAlign=middle;resizable=0;points=[];autosize=1;strokeColor=none;fillColor=none;fontSize=20;" parent="1" vertex="1">
                    <mxGeometry x="930" y="-340" width="30" height="40" as="geometry"/>
                </mxCell>
                <mxCell id="203" value="*" style="text;html=1;align=center;verticalAlign=middle;resizable=0;points=[];autosize=1;strokeColor=none;fillColor=none;fontSize=20;" parent="1" vertex="1">
                    <mxGeometry x="620" y="-380" width="30" height="40" as="geometry"/>
                </mxCell>
                <mxCell id="204" value="owns" style="text;html=1;align=center;verticalAlign=middle;resizable=0;points=[];autosize=1;strokeColor=none;fillColor=none;fontSize=20;" parent="1" vertex="1">
                    <mxGeometry x="-30" y="320" width="70" height="40" as="geometry"/>
                </mxCell>
                <mxCell id="205" value="*" style="text;html=1;align=center;verticalAlign=middle;resizable=0;points=[];autosize=1;strokeColor=none;fillColor=none;fontSize=20;" parent="1" vertex="1">
                    <mxGeometry x="-145.5" y="480" width="30" height="40" as="geometry"/>
                </mxCell>
                <mxCell id="206" value="*" style="text;html=1;align=center;verticalAlign=middle;resizable=0;points=[];autosize=1;strokeColor=none;fillColor=none;fontSize=20;" parent="1" vertex="1">
                    <mxGeometry x="125.5" y="480" width="30" height="40" as="geometry"/>
                </mxCell>
                <mxCell id="207" value="upvote" style="text;html=1;align=center;verticalAlign=middle;resizable=0;points=[];autosize=1;strokeColor=none;fillColor=none;fontSize=20;" parent="1" vertex="1">
                    <mxGeometry x="-35" y="480" width="80" height="40" as="geometry"/>
                </mxCell>
                <mxCell id="208" value="downvote" style="text;html=1;align=center;verticalAlign=middle;resizable=0;points=[];autosize=1;strokeColor=none;fillColor=none;fontSize=20;" parent="1" vertex="1">
                    <mxGeometry x="-50" y="405" width="110" height="40" as="geometry"/>
                </mxCell>
                <mxCell id="209" style="edgeStyle=none;rounded=0;html=1;entryX=0;entryY=0.5;entryDx=0;entryDy=0;fontSize=20;startArrow=none;startFill=0;endArrow=none;endFill=0;endSize=15;" parent="1" target="7" edge="1">
                    <mxGeometry relative="1" as="geometry">
                        <mxPoint x="-140" y="440" as="sourcePoint"/>
                    </mxGeometry>
                </mxCell>
                <mxCell id="210" value="*" style="text;html=1;align=center;verticalAlign=middle;resizable=0;points=[];autosize=1;strokeColor=none;fillColor=none;fontSize=20;" parent="1" vertex="1">
                    <mxGeometry x="120" y="410" width="30" height="40" as="geometry"/>
                </mxCell>
                <mxCell id="211" value="*" style="text;html=1;align=center;verticalAlign=middle;resizable=0;points=[];autosize=1;strokeColor=none;fillColor=none;fontSize=20;" parent="1" vertex="1">
                    <mxGeometry x="-140" y="410" width="30" height="40" as="geometry"/>
                </mxCell>
                <mxCell id="212" value="&amp;nbsp; creates" style="text;html=1;align=center;verticalAlign=middle;resizable=0;points=[];autosize=1;strokeColor=none;fillColor=none;fontSize=20;" parent="1" vertex="1">
                    <mxGeometry y="850" width="100" height="40" as="geometry"/>
                </mxCell>
                <mxCell id="213" style="edgeStyle=none;rounded=0;html=1;entryX=1;entryY=0.5;entryDx=0;entryDy=0;strokeWidth=1;fontSize=20;startArrow=none;startFill=0;endArrow=none;endFill=0;startSize=20;endSize=40;exitX=0.251;exitY=0.999;exitDx=0;exitDy=0;exitPerimeter=0;" parent="1" source="117" edge="1" target="73">
                    <mxGeometry relative="1" as="geometry">
                        <Array as="points">
                            <mxPoint x="240" y="830"/>
                        </Array>
                        <mxPoint x="240" y="780.3200000000002" as="sourcePoint"/>
                        <mxPoint x="-145" y="860" as="targetPoint"/>
                    </mxGeometry>
                </mxCell>
                <mxCell id="214" value="upvote" style="text;html=1;align=center;verticalAlign=middle;resizable=0;points=[];autosize=1;strokeColor=none;fillColor=none;fontSize=20;" parent="1" vertex="1">
                    <mxGeometry x="-20" y="790" width="80" height="40" as="geometry"/>
                </mxCell>
                <mxCell id="215" value="*" style="text;html=1;align=center;verticalAlign=middle;resizable=0;points=[];autosize=1;strokeColor=none;fillColor=none;fontSize=20;" parent="1" vertex="1">
                    <mxGeometry x="210" y="740" width="30" height="40" as="geometry"/>
                </mxCell>
                <mxCell id="216" value="*" style="text;html=1;align=center;verticalAlign=middle;resizable=0;points=[];autosize=1;strokeColor=none;fillColor=none;fontSize=20;" parent="1" vertex="1">
                    <mxGeometry x="-145" y="800" width="30" height="40" as="geometry"/>
                </mxCell>
                <mxCell id="217" style="edgeStyle=none;rounded=0;html=1;strokeWidth=1;fontSize=20;startArrow=none;startFill=0;endArrow=none;endFill=0;startSize=20;endSize=40;exitX=0.697;exitY=0.999;exitDx=0;exitDy=0;exitPerimeter=0;entryX=0.999;entryY=0.784;entryDx=0;entryDy=0;entryPerimeter=0;" parent="1" source="117" edge="1" target="95">
                    <mxGeometry relative="1" as="geometry">
                        <Array as="points">
                            <mxPoint x="400" y="920"/>
                        </Array>
                        <mxPoint x="400.55999999999995" y="780.0799999999999" as="sourcePoint"/>
                        <mxPoint x="-120" y="930" as="targetPoint"/>
                    </mxGeometry>
                </mxCell>
                <mxCell id="218" value="downvote" style="text;html=1;align=center;verticalAlign=middle;resizable=0;points=[];autosize=1;strokeColor=none;fillColor=none;fontSize=20;" parent="1" vertex="1">
                    <mxGeometry x="-65" y="918" width="110" height="40" as="geometry"/>
                </mxCell>
                <mxCell id="221" value="*" style="text;html=1;align=center;verticalAlign=middle;resizable=0;points=[];autosize=1;strokeColor=none;fillColor=none;fontSize=20;" parent="1" vertex="1">
                    <mxGeometry x="-145.5" y="918" width="30" height="40" as="geometry"/>
                </mxCell>
                <mxCell id="224" value="*" style="text;html=1;align=center;verticalAlign=middle;resizable=0;points=[];autosize=1;strokeColor=none;fillColor=none;fontSize=20;" parent="1" vertex="1">
                    <mxGeometry x="370" y="740" width="30" height="40" as="geometry"/>
                </mxCell>
                <mxCell id="228" style="edgeStyle=none;html=1;entryX=0.5;entryY=0;entryDx=0;entryDy=0;exitX=0.5;exitY=1;exitDx=0;exitDy=0;exitPerimeter=0;endArrow=none;endFill=0;dashed=1;" parent="1" source="227" target="118" edge="1">
                    <mxGeometry relative="1" as="geometry">
                        <mxPoint y="-250" as="sourcePoint"/>
                        <mxPoint y="-180" as="targetPoint"/>
                    </mxGeometry>
                </mxCell>
                <mxCell id="229" style="edgeStyle=none;html=1;endArrow=none;endFill=0;dashed=1;entryX=0.5;entryY=0;entryDx=0;entryDy=0;" parent="1" target="175" edge="1">
                    <mxGeometry relative="1" as="geometry">
                        <mxPoint x="260" y="-320" as="targetPoint"/>
                        <mxPoint x="440" y="-480" as="sourcePoint"/>
                    </mxGeometry>
                </mxCell>
                <mxCell id="227" value="&lt;font style=&quot;font-size: 20px;&quot;&gt;&lt;i&gt;Constraints&lt;/i&gt;&lt;br&gt;{ title: UNIQUE }&lt;br&gt;{ caption: NOT NULL }&lt;br&gt;{followers: CHECK &amp;gt;= 0}&lt;br&gt;&lt;/font&gt;" style="shape=note;whiteSpace=wrap;html=1;backgroundOutline=1;darkOpacity=0.05;fontSize=16;align=center;" parent="1" vertex="1">
                    <mxGeometry x="-137.5" y="-380" width="265" height="100" as="geometry"/>
                </mxCell>
                <mxCell id="Hnt34Tu0zkYY4mFbcg1Y-230" value="&lt;font style=&quot;font-size: 20px;&quot;&gt;*&lt;/font&gt;" style="text;html=1;align=center;verticalAlign=middle;resizable=0;points=[];autosize=1;strokeColor=none;fillColor=none;" parent="1" vertex="1">
                    <mxGeometry x="175" y="-77" width="30" height="40" as="geometry"/>
                </mxCell>
                <mxCell id="Hnt34Tu0zkYY4mFbcg1Y-234" value="&lt;font style=&quot;font-size: 20px;&quot;&gt;&lt;i&gt;Constraints&lt;/i&gt;&lt;br&gt;{ title: UNIQUE }&lt;br&gt;{ caption: NOT NULL }&lt;br&gt;&lt;/font&gt;" style="shape=note;whiteSpace=wrap;html=1;backgroundOutline=1;darkOpacity=0.05;fontSize=16;align=center;" parent="1" vertex="1">
                    <mxGeometry x="320" y="-560" width="230" height="80" as="geometry"/>
                </mxCell>
                <mxCell id="138" style="edgeStyle=none;rounded=0;html=1;fontSize=20;startArrow=none;startFill=0;endArrow=none;endFill=0;endSize=40;entryX=0.92;entryY=0.999;entryDx=0;entryDy=0;entryPerimeter=0;exitX=0;exitY=0.75;exitDx=0;exitDy=0;exitPerimeter=0;" parent="1" source="140" target="117" edge="1">
                    <mxGeometry relative="1" as="geometry">
                        <mxPoint x="479.7600000000002" y="780.0799999999999" as="targetPoint"/>
                        <Array as="points">
                            <mxPoint x="640" y="680"/>
                            <mxPoint x="640" y="840"/>
                            <mxPoint x="480" y="840"/>
                        </Array>
                    </mxGeometry>
                </mxCell>
                <mxCell id="230" value="&lt;font style=&quot;font-size: 24px;&quot;&gt;*&lt;/font&gt;" style="text;html=1;align=center;verticalAlign=middle;resizable=0;points=[];autosize=1;strokeColor=none;fillColor=none;" parent="1" vertex="1">
                    <mxGeometry x="515" y="330" width="30" height="40" as="geometry"/>
                </mxCell>
            </root>
        </mxGraphModel>
    </diagram>
</mxfile>